<?xml version="1.0" encoding="utf-8"?>
<!-- Generator: Adobe Illustrator 27.5.0, SVG Export Plug-In . SVG Version: 6.00 Build 0)  -->
<svg version="1.1" id="Layer_1" xmlns="http://www.w3.org/2000/svg" xmlns:xlink="http://www.w3.org/1999/xlink" x="0px" y="0px"
	 viewBox="0 0 841.89 595.28" style="enable-background:new 0 0 841.89 595.28;" xml:space="preserve">
<style type="text/css">
	.st0{fill:#FFFFFF;}
	.st1{fill:#CCCCCB;}
	.st2{fill:#383838;}
	.st3{fill:#E53D3C;}
</style>
<g>
	<g>
		<g>
			<path class="st0" d="M118.35,259.59l-19.18,21.86L62.8,241.3v83.21H35.37v-150.8L118.35,259.59z M120.8,256.92l-18.52-19.18
				l60.45-64.02v150.8H135.3V241.3L120.8,256.92z"/>
		</g>
		<g>
			<path class="st0" d="M305.06,273.87l23.65,50.64h-30.12l-12.72-27.88h-55.54l-13.16,27.88h-30.12l70.94-151.02l44.84,96.37
				h-29.22l-14.95-33.46l-17.4,37.03L305.06,273.87z"/>
		</g>
		<g>
			<g>
				<path class="st1" d="M427.96,283.07c4.78-2.51,9.02-6.21,12.72-11.11v-11.65h22.04v18.1c-4.9,8.6-10.93,15.35-18.1,20.25
					c-7.17,4.9-14.81,8.12-22.94,9.68c-8.13,1.55-16.25,1.46-24.37-0.27c-8.13-1.73-15.59-4.93-22.4-9.59s-12.52-10.69-17.11-18.1
					c-4.6-7.41-7.32-16.07-8.15-25.99c-0.96-9.92,0.15-18.93,3.32-27.06c3.16-8.12,7.64-15.11,13.44-20.97
					c5.79-5.85,12.54-10.39,20.25-13.62c7.71-3.23,15.68-4.84,23.92-4.84c8.24,0,16.37,1.76,24.37,5.29
					c8,3.53,15.17,9.11,21.51,16.76l-16.67,14.52c-3.82-4.78-8.18-8.3-13.08-10.57c-4.9-2.27-9.92-3.49-15.05-3.67
					c-5.14-0.18-10.16,0.6-15.05,2.33c-4.9,1.73-9.23,4.33-12.99,7.8c-3.76,3.47-6.78,7.68-9.05,12.63
					c-2.27,4.96-3.35,10.48-3.22,16.58c0.12,6.09,1.4,11.56,3.85,16.4c2.45,4.84,5.64,8.9,9.59,12.19
					c3.94,3.29,8.39,5.71,13.35,7.26c4.96,1.55,9.97,2.15,15.05,1.79C418.25,286.83,423.18,285.46,427.96,283.07z"/>
			</g>
			<g>
				<polygon class="st1" points="462.72,257.09 421.15,257.09 420.97,236.12 462.72,236.12 				"/>
			</g>
		</g>
		<g>
			<path class="st0" d="M595.06,259.59l-19.18,21.86l-36.36-40.16v83.21h-27.44v-150.8L595.06,259.59z M597.51,256.92l-18.52-19.18
				l60.45-64.02v150.8h-27.44V241.3L597.51,256.92z"/>
		</g>
		<g>
			<path class="st0" d="M781.77,273.87l23.65,50.64H775.3l-12.72-27.88h-55.54l-13.16,27.88h-30.11l70.94-151.02l44.84,96.37h-29.22
				l-14.95-33.46l-17.4,37.03L781.77,273.87z"/>
		</g>
	</g>
	<g>
		<g>
			<g>
				<path class="st0" d="M512.07,374.27v-1.65h0.82h0.08h0.82v1.65h-0.82h-0.08H512.07z M512.07,381.77h1.65v0.82v37.91v0.82h-1.65
					v-0.82V382.6V381.77z"/>
				<path class="st0" d="M514.1,421.71h-2.4V381.4h2.4V421.71z M512.45,420.96h0.9v-38.81h-0.9V420.96z M514.18,374.65h-2.48v-2.4
					h2.48V374.65z M512.45,373.9h0.98V373h-0.98V373.9z"/>
			</g>
			<g>
				<path class="st0" d="M558.98,387.3c2.64-3.68,6.1-5.52,10.39-5.52c3.02,0,5.77,1.04,8.24,3.13c3.46,3.02,5.19,7.06,5.19,12.12
					v23.49l0.08,0.91h-1.57l-0.08-0.82l-0.08-23.57c0-3.13-0.82-5.93-2.47-8.41c-2.31-3.46-5.41-5.19-9.31-5.19
					c-2.58,0-4.92,0.88-7.01,2.64c-3.19,2.69-4.78,6.35-4.78,10.96v0.82v22.67l0.08,0.91h-1.57l-0.08-0.82l-0.08-22.75v-0.82
					c0-3.13-0.82-5.93-2.47-8.41c-2.31-3.46-5.41-5.19-9.31-5.19c-2.58,0-4.92,0.88-7.01,2.64c-3.19,2.69-4.78,6.35-4.78,10.96v0.82
					v22.67v0.82h-1.65v-0.82v-22.67v-0.82V382.6v-0.82h1.65v0.82v7.01c0.38-0.77,0.85-1.54,1.4-2.31c2.64-3.68,6.1-5.52,10.39-5.52
					c1.7,0,3.35,0.36,4.95,1.07c3.74,1.65,6.29,4.59,7.66,8.82C557.25,390.13,557.99,388.67,558.98,387.3z"/>
				<path class="st0" d="M583.3,421.79h-2.31l-0.12-1.16l-0.08-23.61c0-3.04-0.81-5.8-2.41-8.2c-2.22-3.33-5.25-5.03-9-5.03
					c-2.48,0-4.75,0.86-6.76,2.55c-3.08,2.61-4.65,6.2-4.65,10.68v23.49l0.12,1.28h-2.31l-0.12-1.16l-0.08-23.61
					c0-3.04-0.81-5.8-2.41-8.2c-2.22-3.33-5.25-5.03-9-5.03c-2.48,0-4.76,0.86-6.77,2.55c-3.08,2.61-4.65,6.2-4.65,10.68v24.69h-2.4
					V381.4h2.4v6.76c0.22-0.36,0.46-0.72,0.72-1.08c2.7-3.77,6.3-5.68,10.69-5.68c1.75,0,3.46,0.37,5.1,1.11
					c3.52,1.55,6.04,4.26,7.51,8.05c0.48-1.21,1.13-2.38,1.92-3.47c2.7-3.77,6.3-5.68,10.69-5.68c3.1,0,5.95,1.08,8.48,3.22
					c3.54,3.09,5.33,7.26,5.33,12.4v23.49L583.3,421.79z M581.66,421.04h0.82l-0.04-0.5l0-23.52c0-4.92-1.7-8.9-5.06-11.83
					c-2.39-2.02-5.08-3.04-8-3.04c-4.14,0-7.53,1.81-10.08,5.37l0,0c-0.96,1.34-1.69,2.77-2.17,4.26l-0.36,1.1l-0.36-1.1
					c-1.33-4.11-3.84-7-7.46-8.59c-1.54-0.69-3.16-1.04-4.79-1.04c-4.14,0-7.53,1.81-10.08,5.37c-0.54,0.75-1,1.51-1.37,2.26
					l-0.71,1.42v-9.05h-0.9v38.81h0.9v-23.94c0-4.71,1.65-8.49,4.91-11.25c2.15-1.81,4.59-2.73,7.25-2.73c4.02,0,7.25,1.8,9.62,5.36
					c1.68,2.53,2.54,5.42,2.54,8.62v0.82l0.08,22.75l0.05,0.45h0.82l-0.04-0.5l0-23.52c0-4.71,1.65-8.49,4.91-11.25
					c2.15-1.81,4.59-2.73,7.25-2.73c4.02,0,7.25,1.8,9.62,5.36c1.68,2.52,2.54,5.42,2.54,8.62l0.08,23.57L581.66,421.04z"/>
			</g>
			<g>
				<path class="st0" d="M604.58,388.12c3.63-4.23,8.08-6.35,13.35-6.35c4.45,0,8.41,1.59,11.87,4.78c4.18,3.96,6.26,8.96,6.26,15
					c0,5.06-1.57,9.48-4.7,13.27c-3.57,4.34-8.05,6.51-13.43,6.51c-4.51,0-8.49-1.62-11.95-4.86c-4.12-3.96-6.18-8.93-6.18-14.92
					C599.8,396.44,601.39,391.97,604.58,388.12z M605.56,413.59c3.3,4.07,7.42,6.1,12.36,6.1c4.01,0,7.55-1.43,10.63-4.29
					c3.9-3.63,5.85-8.24,5.85-13.85c0-4.5-1.35-8.49-4.04-11.95c-3.24-4.12-7.39-6.18-12.45-6.18c-3.96,0-7.5,1.43-10.63,4.29
					c-3.9,3.63-5.85,8.24-5.85,13.85C601.44,406.12,602.82,410.13,605.56,413.59z"/>
				<path class="st0" d="M617.93,421.71c-4.58,0-8.69-1.67-12.21-4.96c-4.18-4.01-6.3-9.12-6.3-15.19c0-5.17,1.64-9.78,4.87-13.67
					l0,0c3.69-4.3,8.27-6.48,13.64-6.48c4.53,0,8.6,1.64,12.12,4.88c4.24,4.02,6.39,9.15,6.39,15.28c0,5.12-1.61,9.67-4.78,13.51
					C628.02,419.47,623.4,421.71,617.93,421.71z M604.86,388.36c-3.11,3.76-4.69,8.2-4.69,13.19c0,5.86,2.04,10.78,6.07,14.65
					c3.37,3.16,7.3,4.76,11.69,4.76c5.24,0,9.67-2.14,13.14-6.38c3.06-3.71,4.61-8.09,4.61-13.03c0-5.91-2.07-10.86-6.15-14.73
					c-3.37-3.1-7.28-4.68-11.61-4.68C612.79,382.15,608.4,384.24,604.86,388.36z M617.93,420.06c-5.04,0-9.3-2.1-12.66-6.24l0,0
					c-2.79-3.51-4.2-7.64-4.2-12.27c0-5.69,2.01-10.44,5.97-14.12c3.19-2.91,6.85-4.39,10.89-4.39c5.15,0,9.44,2.13,12.74,6.33
					c2.73,3.52,4.12,7.61,4.12,12.18c0,5.69-2.01,10.44-5.97,14.12C625.68,418.59,622.02,420.06,617.93,420.06z M605.86,413.35
					c3.21,3.95,7.27,5.96,12.07,5.96c3.89,0,7.39-1.41,10.38-4.18c3.8-3.54,5.73-8.1,5.73-13.57c0-4.4-1.33-8.34-3.96-11.72
					c-3.15-4.01-7.24-6.04-12.15-6.04c-3.84,0-7.33,1.41-10.38,4.19c-3.8,3.53-5.73,8.1-5.73,13.57
					C601.82,406.01,603.18,409.98,605.86,413.35z"/>
			</g>
			<g>
				<path class="st0" d="M652.97,381.77h1.81l0.17,0.49l15,36.1l14.84-36.1l0.17-0.49h1.81l-0.49,1.15l-15.58,37.91l-0.16,0.49
					h-1.15l-0.17-0.49l-15.74-37.91L652.97,381.77z"/>
				<path class="st0" d="M670.8,421.71h-1.7l-0.25-0.75L652.4,381.4h2.65l0.25,0.75l14.64,35.24l14.49-35.26l0.24-0.73h2.65
					l-0.72,1.68l-15.58,37.91L670.8,421.71z M669.64,420.96h0.61l0.08-0.24l15.86-38.58h-0.97l-0.08,0.24l-15.19,36.96l-15.44-37.2
					h-0.98l0.27,0.63L669.64,420.96z"/>
			</g>
			<g>
				<path class="st0" d="M737.63,413.34c-3.9,5.33-9.18,8-15.82,8c-4.51,0-8.46-1.59-11.87-4.78c-4.18-3.96-6.26-8.96-6.26-15
					c0-5.11,1.57-9.53,4.7-13.27c3.57-4.34,8.05-6.51,13.43-6.51c4.45,0,8.41,1.59,11.87,4.78c4.18,3.96,6.26,8.96,6.26,15v0.82
					h-0.82h-33.79c0.22,4.18,1.54,7.86,3.96,11.04c3.3,4.18,7.47,6.26,12.53,6.26c5.93,0,10.77-2.44,14.51-7.34L737.63,413.34z
					 M738.29,400.73c0-4.18-1.35-7.94-4.04-11.29c-3.35-4.01-7.5-6.02-12.45-6.02c-3.79,0-7.2,1.29-10.22,3.87
					c-3.96,3.41-6.05,7.88-6.26,13.43H738.29z"/>
				<path class="st0" d="M721.81,421.71c-4.58,0-8.66-1.64-12.12-4.88c-4.24-4.01-6.38-9.15-6.38-15.27c0-5.17,1.61-9.72,4.79-13.51
					c3.63-4.41,8.24-6.65,13.72-6.65c4.53,0,8.6,1.64,12.12,4.88c4.24,4.02,6.39,9.15,6.39,15.28v1.2h-34.59
					c0.28,3.92,1.57,7.43,3.86,10.44c3.2,4.06,7.32,6.12,12.23,6.12c5.78,0,10.56-2.42,14.21-7.19l0.23-0.29l1.91,1.43l-0.22,0.3
					C733.97,418.97,728.55,421.71,721.81,421.71z M721.81,382.15c-5.24,0-9.67,2.14-13.14,6.38c-3.06,3.65-4.61,8.04-4.61,13.03
					c0,5.91,2.07,10.87,6.15,14.73c3.32,3.1,7.22,4.68,11.61,4.68c6.37,0,11.51-2.54,15.3-7.54l-0.72-0.54
					c-3.76,4.77-8.67,7.19-14.58,7.19c-5.15,0-9.47-2.16-12.82-6.41c-2.46-3.24-3.81-7.02-4.04-11.26l-0.02-0.39h34.64v-0.45
					c0-5.91-2.07-10.86-6.15-14.73C730.04,383.72,726.14,382.15,721.81,382.15z M738.66,401.11h-33.73l0.01-0.39
					c0.22-5.63,2.37-10.24,6.39-13.7c3.08-2.63,6.6-3.97,10.46-3.97c5.04,0,9.32,2.07,12.73,6.15c2.74,3.41,4.13,7.29,4.13,11.53
					V401.11z M705.71,400.36h32.2c-0.08-3.92-1.41-7.51-3.95-10.68c-3.26-3.9-7.35-5.88-12.15-5.88c-3.68,0-7.04,1.27-9.98,3.79
					C708.07,390.82,706.01,395.12,705.71,400.36z"/>
			</g>
			<g>
				<path class="st0" d="M756.85,374.27v-1.65h0.82h0.08h0.82v1.65h-0.82h-0.08H756.85z M756.85,381.77h1.65v0.82v37.91v0.82h-1.65
					v-0.82V382.6V381.77z"/>
				<path class="st0" d="M758.87,421.71h-2.4V381.4h2.4V421.71z M757.22,420.96h0.9v-38.81h-0.9V420.96z M758.95,374.65h-2.48v-2.4
					h2.48V374.65z M757.22,373.9h0.98V373h-0.98V373.9z"/>
			</g>
			<g>
				<path class="st0" d="M803.02,391.99c0-1.7-0.71-3.3-2.14-4.78c-2.42-2.53-5.77-3.79-10.06-3.79c-2.58,0-4.97,0.55-7.17,1.65
					c-3.35,1.7-5.03,4.01-5.03,6.92c0.05,1.37,0.69,2.64,1.9,3.79c1.59,1.37,5.28,3,11.04,4.86c3.13,1.04,5.41,1.84,6.84,2.39
					c5.16,2.2,7.75,4.89,7.75,8.08c0,2.03-0.85,3.93-2.56,5.69c-2.97,3.02-7.23,4.53-12.78,4.53c-3.74,0-7.03-0.8-9.89-2.39
					c-3.63-2.03-5.44-4.64-5.44-7.83h1.65c0.05,1.7,0.82,3.3,2.31,4.78c2.75,2.53,6.54,3.79,11.37,3.79c3.08,0,5.85-0.6,8.32-1.81
					c3.57-1.7,5.36-3.96,5.36-6.76c-0.06-1.37-0.71-2.64-1.98-3.79c-1.54-1.37-5.17-2.97-10.88-4.78c-3.19-1.04-5.49-1.87-6.92-2.47
					c-5.17-2.14-7.75-4.83-7.75-8.08c0-2.03,0.8-3.96,2.39-5.77c2.75-2.97,6.57-4.45,11.46-4.45c3.24,0,6.15,0.77,8.74,2.31
					c3.41,2.03,5.11,4.67,5.11,7.91H803.02z"/>
				<path class="st0" d="M790.82,421.71c-3.79,0-7.18-0.82-10.07-2.44c-3.74-2.1-5.63-4.84-5.63-8.16v-0.38h2.39l0.01,0.36
					c0.05,1.6,0.79,3.12,2.2,4.53c2.65,2.44,6.39,3.68,11.11,3.68c3.01,0,5.75-0.6,8.16-1.78c3.42-1.63,5.15-3.79,5.15-6.42
					c-0.05-1.25-0.67-2.44-1.86-3.51c-1.49-1.33-5.11-2.91-10.74-4.7c-3.24-1.06-5.51-1.87-6.96-2.49
					c-5.29-2.19-7.98-5.03-7.98-8.42c0-2.12,0.84-4.14,2.48-6.02c2.81-3.04,6.76-4.58,11.74-4.58c3.29,0,6.3,0.79,8.93,2.36
					c3.51,2.1,5.29,4.87,5.29,8.23v0.38h-2.4v-0.38c0-1.6-0.69-3.12-2.04-4.52c-2.34-2.44-5.63-3.68-9.79-3.68
					c-2.51,0-4.87,0.54-7,1.61c-3.24,1.65-4.82,3.81-4.82,6.59c0.05,1.27,0.63,2.43,1.78,3.52c1.53,1.32,5.21,2.93,10.9,4.78
					c3.12,1.04,5.42,1.85,6.86,2.4c5.3,2.26,7.99,5.09,7.99,8.43c0,2.12-0.9,4.12-2.66,5.95
					C800.84,420.15,796.45,421.71,790.82,421.71z M775.87,411.49c0.14,2.86,1.9,5.26,5.24,7.13c2.78,1.55,6.05,2.34,9.71,2.34
					c5.42,0,9.63-1.49,12.51-4.42c1.62-1.68,2.45-3.5,2.45-5.42c0-3.01-2.53-5.61-7.52-7.73c-1.41-0.54-3.71-1.34-6.81-2.38
					c-5.87-1.9-9.52-3.51-11.17-4.93c-1.29-1.23-1.97-2.59-2.03-4.06c0-3.06,1.76-5.51,5.23-7.27c2.24-1.12,4.71-1.69,7.34-1.69
					c4.37,0,7.84,1.31,10.33,3.91c1.39,1.44,2.14,3.01,2.24,4.67h0.9c-0.13-2.92-1.78-5.34-4.92-7.21c-2.51-1.5-5.39-2.26-8.54-2.26
					c-4.76,0-8.52,1.46-11.18,4.33c-1.52,1.73-2.29,3.58-2.29,5.51c0,3.06,2.53,5.66,7.52,7.73c1.41,0.6,3.72,1.42,6.9,2.46
					c5.81,1.84,9.42,3.43,11.01,4.86c1.34,1.22,2.04,2.58,2.1,4.06c0,2.96-1.87,5.35-5.57,7.11c-2.51,1.23-5.36,1.85-8.49,1.85
					c-4.91,0-8.82-1.31-11.63-3.89c-1.45-1.45-2.26-3.02-2.41-4.68H775.87z"/>
			</g>
		</g>
		<g>
			<polygon class="st0" points="628.96,363.24 630.13,364.41 629.54,364.99 617.6,376.94 617.01,377.52 615.85,376.36 
				616.43,375.77 628.38,363.83 			"/>
			<path class="st0" d="M617.01,378.05l-1.7-1.7l13.64-13.64l1.7,1.7L617.01,378.05z M616.38,376.36l0.63,0.63l12.58-12.58
				l-0.63-0.63L616.38,376.36z"/>
		</g>
	</g>
</g>
</svg>
