<svg id="Layer_1" data-name="Layer 1" xmlns="http://www.w3.org/2000/svg" viewBox="0 0 841.89 595.28"><defs><style>.cls-1,.cls-3{fill:#fff;}.cls-2{fill:#d6d6d6;}.cls-3{stroke:#fff;stroke-miterlimit:10;stroke-width:3px;}</style></defs><title>magmaimoveis_logo_branca</title><path class="cls-1" d="M118.35,259.59,99.17,281.45,62.8,241.3v83.21H35.37V173.71Zm2.45-2.67-18.51-19.19,60.45-64v150.8H135.3V241.3Z"/><path class="cls-1" d="M305.06,273.87l23.65,50.64H298.59l-12.71-27.89H230.33l-13.16,27.89H187.06l70.93-151,44.84,96.37H273.61l-14.95-33.46-17.4,37Z"/><path class="cls-2" d="M428,283.07A38.4,38.4,0,0,0,440.68,272V260.31h22v18.1a59.37,59.37,0,0,1-41,29.93,61,61,0,0,1-24.38-.27,62.27,62.27,0,0,1-22.4-9.59,59.81,59.81,0,0,1-17.11-18.1,57.58,57.58,0,0,1-8.15-26A58.11,58.11,0,0,1,353,227.34a60.71,60.71,0,0,1,13.44-21,62.59,62.59,0,0,1,44.17-18.46A60.07,60.07,0,0,1,435,193.2,58.67,58.67,0,0,1,456.45,210l-16.67,14.51A36.29,36.29,0,0,0,426.7,213.9a38.72,38.72,0,0,0-15.05-3.68,40.51,40.51,0,0,0-15,2.33,37.64,37.64,0,0,0-13,7.8A39.19,39.19,0,0,0,374.55,233a38.36,38.36,0,0,0,10.22,45.16,38.56,38.56,0,0,0,13.35,7.26,40.43,40.43,0,0,0,15.05,1.79A39,39,0,0,0,428,283.07Z"/><polygon class="cls-2" points="462.72 257.08 421.15 257.08 420.97 236.12 462.72 236.12 462.72 257.08"/><path class="cls-1" d="M595.06,259.59l-19.19,21.86L539.51,241.3v83.21H512.07V173.71Zm2.45-2.67L579,237.73l60.46-64v150.8H612V241.3Z"/><path class="cls-1" d="M781.77,273.87l23.64,50.64H775.3l-12.72-27.89H707l-13.16,27.89H663.76l70.94-151,44.84,96.37H750.31l-14.94-33.46-17.4,37Z"/><path class="cls-3" d="M512.07,374.27v-1.65h1.73v1.65h-1.73Zm0,7.5h1.65v39.56h-1.65V381.77Z"/><path class="cls-3" d="M514.1,421.71h-2.4V381.4h2.4Zm-1.65-.75h.9V382.15h-.9Zm1.73-46.31H511.7v-2.4h2.48Zm-1.73-.75h1V373h-1Z"/><path class="cls-3" d="M559,387.3a12.2,12.2,0,0,1,10.39-5.53,12.46,12.46,0,0,1,8.24,3.14A15.27,15.27,0,0,1,582.8,397v23.49l.09.91h-1.57l-.08-.83L581.16,397a14.84,14.84,0,0,0-2.48-8.41,10.82,10.82,0,0,0-16.32-2.55,13.61,13.61,0,0,0-4.78,11v23.49l.08.91H556.1l-.08-.83-.09-22.75V397a14.83,14.83,0,0,0-2.47-8.41,10.82,10.82,0,0,0-16.32-2.55,13.58,13.58,0,0,0-4.78,11v24.31h-1.65V381.77h1.65v7.83a16.09,16.09,0,0,1,1.4-2.3,12.2,12.2,0,0,1,10.39-5.53,12,12,0,0,1,4.94,1.07,13.75,13.75,0,0,1,7.67,8.82A15.49,15.49,0,0,1,559,387.3Z"/><path class="cls-3" d="M583.3,421.79H581l-.12-1.16L580.78,397a14.51,14.51,0,0,0-2.41-8.2,10.37,10.37,0,0,0-9-5,10.26,10.26,0,0,0-6.77,2.55A13.28,13.28,0,0,0,558,397v23.49l.11,1.28h-2.31l-.12-1.16L555.56,397a14.51,14.51,0,0,0-2.41-8.2,10.37,10.37,0,0,0-9-5,10.26,10.26,0,0,0-6.77,2.55A13.28,13.28,0,0,0,532.74,397v24.69h-2.4V381.4h2.4v6.76q.33-.54.72-1.08a12.75,12.75,0,0,1,15.79-4.58,13.94,13.94,0,0,1,7.51,8.05,16.21,16.21,0,0,1,1.92-3.47,12.62,12.62,0,0,1,10.69-5.68,12.86,12.86,0,0,1,8.48,3.22,15.69,15.69,0,0,1,5.33,12.4v23.49Zm-1.64-.75h.82l-.05-.49V397a15,15,0,0,0-5.07-11.83,12.12,12.12,0,0,0-8-3,11.9,11.9,0,0,0-10.08,5.36h0a15.68,15.68,0,0,0-2.18,4.27l-.35,1.1-.36-1.1a13.39,13.39,0,0,0-7.46-8.59,11.64,11.64,0,0,0-4.79-1,11.9,11.9,0,0,0-10.08,5.36,17.25,17.25,0,0,0-1.37,2.26l-.71,1.42v-9h-.9V421h.9V397a14,14,0,0,1,4.91-11.25,11.2,11.2,0,0,1,16.87,2.63,15.23,15.23,0,0,1,2.54,8.62v.82l.08,22.75.05.45h.81l0-.49V397a14,14,0,0,1,4.91-11.25A11.2,11.2,0,0,1,579,388.4a15.23,15.23,0,0,1,2.54,8.62l.08,23.57Z"/><path class="cls-3" d="M604.58,388.12a17.17,17.17,0,0,1,25.22-1.57,19.81,19.81,0,0,1,6.26,15,20.21,20.21,0,0,1-4.7,13.27,16.66,16.66,0,0,1-13.43,6.51A17,17,0,0,1,606,416.47a19.81,19.81,0,0,1-6.18-14.92A20.4,20.4,0,0,1,604.58,388.12Zm1,25.47a15.32,15.32,0,0,0,12.37,6.1,15.16,15.16,0,0,0,10.63-4.29,18.08,18.08,0,0,0,5.85-13.85,18.89,18.89,0,0,0-4-11.95,15.15,15.15,0,0,0-12.44-6.18,15.33,15.33,0,0,0-10.63,4.29,18,18,0,0,0-5.86,13.84A18.84,18.84,0,0,0,605.56,413.59Z"/><path class="cls-3" d="M617.93,421.71a17.39,17.39,0,0,1-12.21-5,20.25,20.25,0,0,1-6.3-15.19,20.89,20.89,0,0,1,4.87-13.67h0a17.56,17.56,0,0,1,25.76-1.59,20.21,20.21,0,0,1,6.39,15.27,20.64,20.64,0,0,1-4.79,13.51A17.13,17.13,0,0,1,617.93,421.71Zm-13.07-33.35a20.17,20.17,0,0,0-4.69,13.19,19.51,19.51,0,0,0,6.07,14.65A16.65,16.65,0,0,0,617.93,421a16.4,16.4,0,0,0,13.14-6.38,19.93,19.93,0,0,0,4.62-13,19.49,19.49,0,0,0-6.15-14.72,16.8,16.8,0,0,0-24.68,1.53Zm13.07,31.7a15.73,15.73,0,0,1-12.66-6.24h0a19.23,19.23,0,0,1-4.2-12.27,18.53,18.53,0,0,1,6-14.12,15.8,15.8,0,0,1,10.89-4.38,15.56,15.56,0,0,1,12.74,6.32,19.4,19.4,0,0,1,4.12,12.18,18.55,18.55,0,0,1-6,14.13A15.61,15.61,0,0,1,617.93,420.06Zm-12.07-6.71a15.1,15.1,0,0,0,22.45,1.78A17.83,17.83,0,0,0,634,401.55a18.65,18.65,0,0,0-4-11.72,14.87,14.87,0,0,0-12.15-6A15.06,15.06,0,0,0,607.55,388a17.81,17.81,0,0,0-5.73,13.57A18.49,18.49,0,0,0,605.86,413.35Z"/><path class="cls-3" d="M653,381.77h1.81l.17.5,15,36.1,14.84-36.1.16-.5h1.81l-.49,1.16-15.58,37.91-.16.49h-1.16l-.16-.49-15.75-37.91Z"/><path class="cls-3" d="M670.8,421.71h-1.7l-.25-.75L652.4,381.4h2.65l.25.75L670,417.39l14.49-35.27.24-.72h2.65l-.72,1.67L671,421Zm-1.16-.75h.62l.08-.24,15.85-38.57h-1l-.08.24-15.19,37-15.44-37.2h-1l.27.63Z"/><path class="cls-3" d="M737.63,413.34a18.6,18.6,0,0,1-15.82,8,16.81,16.81,0,0,1-11.87-4.78,19.75,19.75,0,0,1-6.27-15,20,20,0,0,1,4.7-13.27,16.7,16.7,0,0,1,13.44-6.51,17,17,0,0,1,11.86,4.78,19.78,19.78,0,0,1,6.27,15v.83H705.32a19.51,19.51,0,0,0,4,11,15.29,15.29,0,0,0,12.53,6.27,17.45,17.45,0,0,0,14.5-7.34Zm.66-12.61a17.57,17.57,0,0,0-4-11.29,15.6,15.6,0,0,0-12.44-6,15.27,15.27,0,0,0-10.22,3.88,17.84,17.84,0,0,0-6.27,13.43Z"/><path class="cls-3" d="M721.81,421.71a17.27,17.27,0,0,1-12.13-4.88,20.21,20.21,0,0,1-6.38-15.28A20.49,20.49,0,0,1,708.08,388a17.13,17.13,0,0,1,13.73-6.64,17.47,17.47,0,0,1,12.12,4.88,20.2,20.2,0,0,1,6.38,15.27v1.2H705.72a19.13,19.13,0,0,0,3.86,10.45,15,15,0,0,0,12.23,6.11,17.15,17.15,0,0,0,14.2-7.19l.23-.29,1.91,1.43-.22.3A19,19,0,0,1,721.81,421.71Zm0-39.56a16.4,16.4,0,0,0-13.15,6.37,19.75,19.75,0,0,0-4.61,13,19.52,19.52,0,0,0,6.14,14.73A16.54,16.54,0,0,0,721.81,421a18.31,18.31,0,0,0,15.3-7.54l-.73-.55a17.81,17.81,0,0,1-14.57,7.19A15.72,15.72,0,0,1,709,413.65a19.92,19.92,0,0,1-4-11.25l0-.4h34.63v-.45a19.52,19.52,0,0,0-6.14-14.72A16.73,16.73,0,0,0,721.81,382.15Zm16.85,19H704.93l0-.39A18.28,18.28,0,0,1,711.34,387a15.76,15.76,0,0,1,10.47-4,16,16,0,0,1,12.73,6.15,18,18,0,0,1,4.12,11.53Zm-32.95-.75h32.2A17.32,17.32,0,0,0,734,389.67a15.29,15.29,0,0,0-12.15-5.87,15,15,0,0,0-10,3.78A17.54,17.54,0,0,0,705.71,400.36Z"/><path class="cls-3" d="M756.85,374.27v-1.65h1.73v1.65h-1.73Zm0,7.5h1.65v39.56h-1.65V381.77Z"/><path class="cls-3" d="M758.87,421.71h-2.4V381.4h2.4Zm-1.65-.75h.9V382.15h-.9ZM759,374.65h-2.48v-2.4H759Zm-1.73-.75h1V373h-1Z"/><path class="cls-3" d="M803,392a6.83,6.83,0,0,0-2.15-4.78c-2.41-2.52-5.77-3.79-10-3.79a15.81,15.81,0,0,0-7.17,1.65q-5,2.55-5,6.92a5.45,5.45,0,0,0,1.9,3.79q2.38,2.07,11,4.87,4.7,1.56,6.84,2.39,7.76,3.3,7.75,8.07a8,8,0,0,1-2.56,5.69q-4.44,4.53-12.77,4.53a19.87,19.87,0,0,1-9.89-2.39q-5.45-3-5.44-7.83h1.65a7,7,0,0,0,2.3,4.79q4.13,3.78,11.38,3.79a18.65,18.65,0,0,0,8.32-1.82q5.36-2.55,5.36-6.76a5.37,5.37,0,0,0-2-3.79q-2.31-2.06-10.88-4.78-4.77-1.56-6.92-2.47Q777,396.86,777,392a8.66,8.66,0,0,1,2.39-5.77q4.13-4.44,11.46-4.45a16.76,16.76,0,0,1,8.74,2.31q5.1,3,5.11,7.91Z"/><path class="cls-3" d="M790.82,421.71a20.34,20.34,0,0,1-10.07-2.44c-3.74-2.09-5.64-4.84-5.64-8.16v-.37h2.39v.36a6.69,6.69,0,0,0,2.2,4.53c2.65,2.44,6.39,3.68,11.11,3.68a18.51,18.51,0,0,0,8.16-1.77c3.42-1.63,5.15-3.79,5.15-6.43a5.06,5.06,0,0,0-1.86-3.51c-1.49-1.33-5.11-2.91-10.74-4.7-3.24-1.06-5.52-1.87-7-2.49-5.29-2.19-8-5-8-8.42a9,9,0,0,1,2.48-6c2.82-3,6.76-4.58,11.74-4.58a17.17,17.17,0,0,1,8.93,2.36c3.51,2.1,5.29,4.87,5.29,8.23v.38h-2.4V392a6.47,6.47,0,0,0-2-4.52c-2.33-2.44-5.62-3.67-9.78-3.67a15.58,15.58,0,0,0-7,1.6c-3.25,1.65-4.83,3.81-4.83,6.59a5.14,5.14,0,0,0,1.78,3.52c1.54,1.33,5.21,2.94,10.91,4.78,3.11,1,5.42,1.85,6.86,2.4,5.3,2.25,8,5.09,8,8.42a8.43,8.43,0,0,1-2.66,5.95C800.84,420.15,796.45,421.71,790.82,421.71Zm-15-10.22c.14,2.86,1.9,5.26,5.24,7.13a19.73,19.73,0,0,0,9.71,2.34c5.42,0,9.63-1.49,12.51-4.42a7.75,7.75,0,0,0,2.44-5.43c0-3-2.53-5.6-7.51-7.73-1.42-.54-3.72-1.34-6.82-2.38-5.87-1.9-9.52-3.51-11.17-4.93a5.9,5.9,0,0,1-2-4.06c0-3.07,1.77-5.51,5.24-7.28a16.25,16.25,0,0,1,7.34-1.68c4.37,0,7.84,1.31,10.33,3.9a7.36,7.36,0,0,1,2.23,4.67h.9c-.13-2.92-1.78-5.35-4.92-7.22a16.48,16.48,0,0,0-8.54-2.25c-4.76,0-8.52,1.45-11.18,4.33a8.26,8.26,0,0,0-2.29,5.51c0,3.06,2.53,5.66,7.51,7.73,1.41.6,3.73,1.43,6.9,2.47,5.81,1.84,9.42,3.43,11,4.85a5.79,5.79,0,0,1,2.11,4.06c0,3-1.88,5.35-5.58,7.11a19.06,19.06,0,0,1-8.48,1.85c-4.91,0-8.83-1.31-11.63-3.89a7.59,7.59,0,0,1-2.41-4.68Z"/><polygon class="cls-3" points="734.92 360.99 736.08 362.16 735.5 362.74 723.55 374.69 722.97 375.27 721.8 374.11 722.39 373.52 734.34 361.58 734.92 360.99"/><path class="cls-3" d="M723,375.8l-1.7-1.69,13.65-13.65,1.69,1.7Zm-.63-1.69.63.63,12.58-12.58-.63-.64Z"/></svg>