<?xml version="1.0" encoding="utf-8"?>
<!-- Generator: Adobe Illustrator 27.5.0, SVG Export Plug-In . SVG Version: 6.00 Build 0)  -->
<svg version="1.1" id="Layer_1" xmlns="http://www.w3.org/2000/svg" xmlns:xlink="http://www.w3.org/1999/xlink" x="0px" y="0px"
	 viewBox="0 0 841.89 595.28" style="enable-background:new 0 0 841.89 595.28;" xml:space="preserve">
<style type="text/css">
	.st0{fill:#FFFFFF;}
	.st1{fill:#CCCCCB;}
	.st2{fill:#E53D3C;}
	.st3{fill:#383838;}
</style>
<g>
	<g>
		<g>
			<path class="st0" d="M118.35,259.59l-19.18,21.86L62.8,241.3v83.21H35.37v-150.8L118.35,259.59z M120.8,256.92l-18.52-19.18
				l60.45-64.02v150.8H135.3V241.3L120.8,256.92z"/>
		</g>
		<g>
			<path class="st0" d="M305.06,273.87l23.65,50.64h-30.12l-12.72-27.88h-55.54l-13.16,27.88h-30.12l70.94-151.02l44.84,96.37
				h-29.22l-14.95-33.46l-17.4,37.03L305.06,273.87z"/>
		</g>
		<g>
			<g>
				<path class="st1" d="M427.96,283.07c4.78-2.51,9.02-6.21,12.72-11.11v-11.65h22.04v18.1c-4.9,8.6-10.93,15.35-18.1,20.25
					c-7.17,4.9-14.81,8.12-22.94,9.68c-8.13,1.55-16.25,1.46-24.37-0.27c-8.13-1.73-15.59-4.93-22.4-9.59s-12.52-10.69-17.11-18.1
					c-4.6-7.41-7.32-16.07-8.15-25.99c-0.96-9.92,0.15-18.93,3.32-27.06c3.16-8.12,7.64-15.11,13.44-20.97
					c5.79-5.85,12.54-10.39,20.25-13.62c7.71-3.23,15.68-4.84,23.92-4.84c8.24,0,16.37,1.76,24.37,5.29
					c8,3.53,15.17,9.11,21.51,16.76l-16.67,14.52c-3.82-4.78-8.18-8.3-13.08-10.57c-4.9-2.27-9.92-3.49-15.05-3.67
					c-5.14-0.18-10.16,0.6-15.05,2.33c-4.9,1.73-9.23,4.33-12.99,7.8c-3.76,3.47-6.78,7.68-9.05,12.63
					c-2.27,4.96-3.35,10.48-3.22,16.58c0.12,6.09,1.4,11.56,3.85,16.4c2.45,4.84,5.64,8.9,9.59,12.19
					c3.94,3.29,8.39,5.71,13.35,7.26c4.96,1.55,9.97,2.15,15.05,1.79C418.25,286.83,423.18,285.46,427.96,283.07z"/>
			</g>
			<g>
				<polygon class="st1" points="462.72,257.09 421.15,257.09 420.97,236.12 462.72,236.12 				"/>
			</g>
		</g>
		<g>
			<path class="st0" d="M595.06,259.59l-19.18,21.86l-36.36-40.16v83.21h-27.44v-150.8L595.06,259.59z M597.51,256.92l-18.52-19.18
				l60.45-64.02v150.8h-27.44V241.3L597.51,256.92z"/>
		</g>
		<g>
			<path class="st0" d="M781.77,273.87l23.65,50.64H775.3l-12.72-27.88h-55.54l-13.16,27.88h-30.11l70.94-151.02l44.84,96.37h-29.22
				l-14.95-33.46l-17.4,37.03L781.77,273.87z"/>
		</g>
	</g>
</g>
<g>
	<g>
		<path class="st0" d="M517.38,370.14h-6.5v-6.17h6.5V370.14z M516.96,421.79h-5.62c0-0.62,0.01-2.78,0.02-6.48
			c0.01-3.71,0.02-8.71,0.02-15c0-3.27-0.01-6.69-0.02-10.24c-0.01-3.55-0.02-7.13-0.02-10.74h5.62c0,3.64-0.01,7.18-0.02,10.64
			c-0.01,3.46-0.02,6.79-0.02,10.01c0,6.24,0.01,11.27,0.02,15.08C516.95,418.88,516.96,421.12,516.96,421.79z"/>
		<path class="st0" d="M586.81,421.79h-5.62c0-0.78,0.01-3.32,0.02-7.59c0.01-4.28,0.02-7.37,0.02-9.27c0-2.69-0.01-5.3-0.02-7.85
			c-0.01-2.54-0.02-4.08-0.02-4.62c0-3.5-0.27-5.87-0.82-7.11c-0.54-1.24-1.66-1.87-3.34-1.87c-1.09,0-2.39,0.44-3.9,1.32
			c-1.51,0.88-2.88,1.84-4.11,2.87c0,0.2,0,0.49,0,0.88s0,0.66,0,0.8c0,2.1-0.01,4.43-0.02,7.01c-0.01,2.57-0.02,4.67-0.02,6.29
			c0,1.9,0.01,5.36,0.02,10.36c0.01,5.01,0.02,7.93,0.02,8.77h-5.62c0-0.56,0.01-3.04,0.02-7.43c0.01-4.39,0.02-7.54,0.02-9.44
			c0-2.69-0.01-5.3-0.02-7.85c-0.01-2.54-0.02-4.08-0.02-4.62c0-1.48-0.04-2.76-0.13-3.84c-0.08-1.08-0.21-1.95-0.38-2.62
			c-0.25-0.92-0.66-1.57-1.22-1.95c-0.56-0.38-1.32-0.57-2.27-0.57c-1.09,0-2.43,0.48-4.01,1.43c-1.58,0.95-2.99,1.95-4.22,2.98
			c0,0.62,0,2.66,0,6.13s0,6.66,0,9.57c0,3.11,0.01,6.75,0.02,10.93c0.01,4.18,0.02,6.61,0.02,7.28h-5.62
			c0-1.06,0.01-2.99,0.02-5.79c0.01-2.8,0.02-8.08,0.02-15.86c0-7.02-0.01-11.55-0.02-13.57c-0.01-2.03-0.02-4.44-0.02-7.24h5.62
			l-0.04,3.65l0.08,0.04c1.62-1.26,3.34-2.36,5.16-3.29s3.57-1.41,5.25-1.41c1.65,0,3.05,0.41,4.2,1.24s1.97,2.08,2.48,3.75h0.13
			c1.93-1.48,3.78-2.69,5.56-3.61c1.78-0.92,3.53-1.38,5.27-1.38c2.49,0,4.36,0.94,5.6,2.83c1.24,1.89,1.87,4.36,1.87,7.41
			c0,2.94,0,5.64,0,8.1s0,4.46,0,6c0,1.9,0.01,5.39,0.02,10.45C586.8,418.17,586.81,421.06,586.81,421.79z"/>
		<path class="st0" d="M639.95,400.52c0,3.16-0.29,6.24-0.86,9.23s-1.56,5.57-2.96,7.72c-1.12,1.71-2.41,3.02-3.88,3.94
			c-1.47,0.92-3.17,1.38-5.1,1.38c-1.82,0-3.52-0.48-5.1-1.45c-1.58-0.96-2.89-2.26-3.92-3.88c-1.43-2.24-2.42-4.81-2.98-7.72
			c-0.56-2.91-0.84-5.99-0.84-9.23c0-3.53,0.26-6.57,0.78-9.15c0.52-2.57,1.45-5.01,2.79-7.3c1.12-1.9,2.51-3.34,4.18-4.3
			c1.66-0.97,3.36-1.45,5.1-1.45c1.85,0,3.55,0.46,5.12,1.38c1.57,0.92,2.94,2.38,4.11,4.36c1.2,2.01,2.1,4.39,2.69,7.13
			C639.66,393.94,639.95,397.05,639.95,400.52z M634.29,400.52c0-2.83-0.2-5.52-0.61-8.08s-1-4.54-1.78-5.94
			c-0.59-1.06-1.28-1.89-2.08-2.5c-0.8-0.6-1.69-0.9-2.66-0.9c-0.98,0-1.87,0.29-2.67,0.88c-0.8,0.59-1.5,1.43-2.12,2.52
			c-0.73,1.26-1.31,3.13-1.74,5.62c-0.43,2.49-0.65,5.29-0.65,8.39c0,2.88,0.18,5.53,0.55,7.93c0.36,2.41,0.92,4.35,1.68,5.83
			c0.62,1.2,1.34,2.13,2.18,2.77c0.84,0.64,1.75,0.96,2.73,0.96c1.03,0,1.96-0.31,2.79-0.94s1.55-1.56,2.16-2.79
			c0.75-1.54,1.31-3.5,1.68-5.88C634.11,406.03,634.29,403.4,634.29,400.52z M637.44,363.17l-12.21,11.08l-3.19-2.69l11.88-11.75
			L637.44,363.17z"/>
		<path class="st0" d="M684.54,379.98c-2.43,8.54-4.8,17.49-7.11,26.85s-3.52,14.35-3.63,14.97h-4.7c-0.2-0.81-1.28-4.99-3.25-12.53
			c-1.97-7.54-4.58-17.28-7.83-29.2l5.61-1.45l7.74,32.06h0.25l7.56-32.06L684.54,379.98z"/>
		<path class="st0" d="M729.88,398.84h-18.34c0,3.33,0.28,6.12,0.84,8.37c0.56,2.25,1.47,4.12,2.73,5.6
			c1.26,1.45,2.69,2.52,4.28,3.19c1.59,0.67,3.47,1.01,5.62,1.01c0.98,0,1.71-0.01,2.18-0.04c0.47-0.03,0.87-0.06,1.17-0.08
			l-0.67,4.95c-0.33,0.03-0.67,0.06-1.01,0.08c-0.34,0.03-1.12,0.04-2.35,0.04c-3.27-0.03-6.07-0.62-8.39-1.76
			c-2.32-1.15-4.21-2.75-5.67-4.83c-1.4-2.01-2.47-4.36-3.21-7.03c-0.74-2.67-1.11-5.45-1.11-8.33c0-3.38,0.24-6.28,0.71-8.69
			c0.48-2.41,1.4-4.77,2.77-7.09c1.2-2.04,2.57-3.54,4.11-4.49c1.54-0.95,3.24-1.43,5.12-1.43c1.73,0,3.29,0.4,4.66,1.2
			c1.37,0.8,2.54,1.97,3.52,3.5c1.06,1.82,1.83,4.03,2.29,6.63C729.61,392.25,729.86,395.31,729.88,398.84z M724.51,394.47
			c-0.28-3.97-0.94-6.88-1.99-8.73c-1.05-1.85-2.44-2.77-4.18-2.77s-3.17,0.89-4.3,2.66c-1.13,1.78-1.94,4.72-2.41,8.83H724.51z"/>
		<path class="st0" d="M761.08,370.14h-6.5v-6.17h6.5V370.14z M760.66,421.79h-5.62c0-0.62,0.01-2.78,0.02-6.48
			c0.01-3.71,0.02-8.71,0.02-15c0-3.27-0.01-6.69-0.02-10.24c-0.01-3.55-0.02-7.13-0.02-10.74h5.62c0,3.64-0.01,7.18-0.02,10.64
			c-0.01,3.46-0.02,6.79-0.02,10.01c0,6.24,0.01,11.27,0.02,15.08C760.66,418.88,760.66,421.12,760.66,421.79z"/>
		<path class="st0" d="M804.92,409.62c0,1.96-0.39,3.73-1.17,5.33c-0.78,1.59-1.92,2.99-3.4,4.2c-1.2,0.98-2.8,1.73-4.8,2.27
			s-4.22,0.8-6.65,0.8c-0.73,0-1.32-0.01-1.78-0.04c-0.46-0.03-0.8-0.04-1.03-0.04l-0.46-4.95c0.53,0.06,1.09,0.09,1.68,0.11
			c0.59,0.01,1.26,0.02,2.01,0.02c1.54,0,2.89-0.13,4.05-0.4c1.16-0.27,2.15-0.64,2.96-1.11c0.87-0.5,1.58-1.17,2.14-2.01
			c0.56-0.84,0.84-1.92,0.84-3.23c0-1.26-0.24-2.34-0.71-3.25c-0.48-0.91-1.09-1.74-1.85-2.5c-0.48-0.48-1.27-1.18-2.39-2.12
			c-1.12-0.94-2.2-1.87-3.23-2.79c-1.32-1.17-2.34-2.49-3.06-3.94c-0.73-1.45-1.09-3.17-1.09-5.16c0-1.93,0.43-3.66,1.3-5.2
			c0.87-1.54,2.07-2.84,3.61-3.9c1.34-0.92,2.94-1.6,4.8-2.04s3.74-0.65,5.64-0.65c0.81,0,1.25,0,1.32,0c0.07,0,0.25,0,0.52,0
			l0.38,4.95c-0.25,0-0.62-0.01-1.11-0.02c-0.49-0.01-1.01-0.02-1.57-0.02c-1.34,0-2.62,0.13-3.84,0.4
			c-1.22,0.27-2.17,0.64-2.87,1.11c-0.75,0.53-1.37,1.2-1.85,1.99c-0.48,0.8-0.71,1.71-0.71,2.75c0,1.12,0.19,2.11,0.57,2.96
			s1,1.7,1.87,2.54c0.76,0.73,1.64,1.5,2.64,2.31s1.93,1.61,2.77,2.39c1.48,1.32,2.6,2.73,3.36,4.24
			C804.54,406.1,804.92,407.78,804.92,409.62z"/>
	</g>
</g>
</svg>
