<?xml version="1.0" encoding="utf-8"?>
<!-- Generator: Adobe Illustrator 23.0.1, SVG Export Plug-In . SVG Version: 6.00 Build 0)  -->
<svg version="1.1" id="Layer_1" xmlns="http://www.w3.org/2000/svg" xmlns:xlink="http://www.w3.org/1999/xlink" x="0px" y="0px"
	 viewBox="0 0 841.9 595.3" style="enable-background:new 0 0 841.9 595.3;" xml:space="preserve">
<style type="text/css">
	.st0{fill:#383838;}
	.st1{fill:#E53D3C;}
</style>
<g>
	<g>
		<g>
			<path class="st0" d="M118.4,259.6l-19.2,21.9l-36.4-40.2v83.2H35.4V173.7L118.4,259.6z M120.8,256.9l-18.5-19.2l60.5-64v150.8
				h-27.4v-83.2L120.8,256.9z"/>
		</g>
		<g>
			<path class="st0" d="M305.1,273.9l23.6,50.6h-30.1l-12.7-27.9h-55.5l-13.2,27.9h-30.1l70.9-151l44.8,96.4h-29.2l-14.9-33.5
				l-17.4,37L305.1,273.9z"/>
		</g>
		<g>
			<g>
				<path class="st1" d="M428,283.1c4.8-2.5,9-6.2,12.7-11.1v-11.6h22v18.1c-4.9,8.6-10.9,15.4-18.1,20.3
					c-7.2,4.9-14.8,8.1-22.9,9.7c-8.1,1.6-16.2,1.5-24.4-0.3c-8.1-1.7-15.6-4.9-22.4-9.6s-12.5-10.7-17.1-18.1
					c-4.6-7.4-7.3-16.1-8.2-26c-1-9.9,0.1-18.9,3.3-27.1c3.2-8.1,7.6-15.1,13.4-21c5.8-5.9,12.5-10.4,20.3-13.6
					c7.7-3.2,15.7-4.8,23.9-4.8c8.2,0,16.4,1.8,24.4,5.3c8,3.5,15.2,9.1,21.5,16.8l-16.7,14.5c-3.8-4.8-8.2-8.3-13.1-10.6
					c-4.9-2.3-9.9-3.5-15.1-3.7c-5.1-0.2-10.2,0.6-15.1,2.3c-4.9,1.7-9.2,4.3-13,7.8c-3.8,3.5-6.8,7.7-9.1,12.6
					c-2.3,5-3.3,10.5-3.2,16.6c0.1,6.1,1.4,11.6,3.9,16.4c2.4,4.8,5.6,8.9,9.6,12.2c3.9,3.3,8.4,5.7,13.4,7.3c5,1.6,10,2.2,15.1,1.8
					C418.2,286.8,423.2,285.5,428,283.1z"/>
			</g>
			<g>
				<polygon class="st1" points="462.7,257.1 421.1,257.1 421,236.1 462.7,236.1 				"/>
			</g>
		</g>
		<g>
			<path class="st0" d="M595.1,259.6l-19.2,21.9l-36.4-40.2v83.2h-27.4V173.7L595.1,259.6z M597.5,256.9L579,237.7l60.5-64v150.8
				H612v-83.2L597.5,256.9z"/>
		</g>
		<g>
			<path class="st0" d="M781.8,273.9l23.6,50.6h-30.1l-12.7-27.9H707l-13.2,27.9h-30.1l70.9-151l44.8,96.4h-29.2l-14.9-33.5
				l-17.4,37L781.8,273.9z"/>
		</g>
	</g>
	<g>
		<g>
			<g>
				<path class="st0" d="M512.1,374.3v-1.6h0.8h0.1h0.8v1.6H513h-0.1H512.1z M512.1,381.8h1.6v0.8v37.9v0.8h-1.6v-0.8v-37.9V381.8z"
					/>
				<path class="st0" d="M514.1,421.7h-2.4v-40.3h2.4V421.7z M512.4,421h0.9v-38.8h-0.9V421z M514.2,374.6h-2.5v-2.4h2.5V374.6z
					 M512.4,373.9h1V373h-1V373.9z"/>
			</g>
			<g>
				<path class="st0" d="M559,387.3c2.6-3.7,6.1-5.5,10.4-5.5c3,0,5.8,1,8.2,3.1c3.5,3,5.2,7.1,5.2,12.1v23.5l0.1,0.9h-1.6l-0.1-0.8
					l-0.1-23.6c0-3.1-0.8-5.9-2.5-8.4c-2.3-3.5-5.4-5.2-9.3-5.2c-2.6,0-4.9,0.9-7,2.6c-3.2,2.7-4.8,6.3-4.8,11v0.8v22.7l0.1,0.9
					h-1.6l-0.1-0.8l-0.1-22.7V397c0-3.1-0.8-5.9-2.5-8.4c-2.3-3.5-5.4-5.2-9.3-5.2c-2.6,0-4.9,0.9-7,2.6c-3.2,2.7-4.8,6.3-4.8,11
					v0.8v22.7v0.8h-1.6v-0.8v-22.7V397v-14.4v-0.8h1.6v0.8v7c0.4-0.8,0.9-1.5,1.4-2.3c2.6-3.7,6.1-5.5,10.4-5.5
					c1.7,0,3.4,0.4,4.9,1.1c3.7,1.6,6.3,4.6,7.7,8.8C557.3,390.1,558,388.7,559,387.3z"/>
				<path class="st0" d="M583.3,421.8H581l-0.1-1.2l-0.1-23.6c0-3-0.8-5.8-2.4-8.2c-2.2-3.3-5.3-5-9-5c-2.5,0-4.8,0.9-6.8,2.5
					c-3.1,2.6-4.6,6.2-4.6,10.7v23.5l0.1,1.3h-2.3l-0.1-1.2l-0.1-23.6c0-3-0.8-5.8-2.4-8.2c-2.2-3.3-5.2-5-9-5
					c-2.5,0-4.8,0.9-6.8,2.5c-3.1,2.6-4.6,6.2-4.6,10.7v24.7h-2.4v-40.3h2.4v6.8c0.2-0.4,0.5-0.7,0.7-1.1c2.7-3.8,6.3-5.7,10.7-5.7
					c1.7,0,3.5,0.4,5.1,1.1c3.5,1.6,6,4.3,7.5,8c0.5-1.2,1.1-2.4,1.9-3.5c2.7-3.8,6.3-5.7,10.7-5.7c3.1,0,6,1.1,8.5,3.2
					c3.5,3.1,5.3,7.3,5.3,12.4v23.5L583.3,421.8z M581.7,421h0.8l0-0.5l0-23.5c0-4.9-1.7-8.9-5.1-11.8c-2.4-2-5.1-3-8-3
					c-4.1,0-7.5,1.8-10.1,5.4l0,0c-1,1.3-1.7,2.8-2.2,4.3l-0.4,1.1l-0.4-1.1c-1.3-4.1-3.8-7-7.5-8.6c-1.5-0.7-3.2-1-4.8-1
					c-4.1,0-7.5,1.8-10.1,5.4c-0.5,0.8-1,1.5-1.4,2.3l-0.7,1.4v-9h-0.9V421h0.9V397c0-4.7,1.7-8.5,4.9-11.2c2.1-1.8,4.6-2.7,7.2-2.7
					c4,0,7.3,1.8,9.6,5.4c1.7,2.5,2.5,5.4,2.5,8.6v0.8l0.1,22.7l0,0.4h0.8l0-0.5l0-23.5c0-4.7,1.7-8.5,4.9-11.2
					c2.1-1.8,4.6-2.7,7.2-2.7c4,0,7.3,1.8,9.6,5.4c1.7,2.5,2.5,5.4,2.5,8.6l0.1,23.6L581.7,421z"/>
			</g>
			<g>
				<path class="st0" d="M604.6,388.1c3.6-4.2,8.1-6.3,13.4-6.3c4.5,0,8.4,1.6,11.9,4.8c4.2,4,6.3,9,6.3,15c0,5.1-1.6,9.5-4.7,13.3
					c-3.6,4.3-8.1,6.5-13.4,6.5c-4.5,0-8.5-1.6-12-4.9c-4.1-4-6.2-8.9-6.2-14.9C599.8,396.4,601.4,392,604.6,388.1z M605.6,413.6
					c3.3,4.1,7.4,6.1,12.4,6.1c4,0,7.6-1.4,10.6-4.3c3.9-3.6,5.9-8.2,5.9-13.8c0-4.5-1.3-8.5-4-12c-3.2-4.1-7.4-6.2-12.4-6.2
					c-4,0-7.5,1.4-10.6,4.3c-3.9,3.6-5.9,8.2-5.9,13.8C601.4,406.1,602.8,410.1,605.6,413.6z"/>
				<path class="st0" d="M617.9,421.7c-4.6,0-8.7-1.7-12.2-5c-4.2-4-6.3-9.1-6.3-15.2c0-5.2,1.6-9.8,4.9-13.7l0,0
					c3.7-4.3,8.3-6.5,13.6-6.5c4.5,0,8.6,1.6,12.1,4.9c4.2,4,6.4,9.2,6.4,15.3c0,5.1-1.6,9.7-4.8,13.5
					C628,419.5,623.4,421.7,617.9,421.7z M604.9,388.4c-3.1,3.8-4.7,8.2-4.7,13.2c0,5.9,2,10.8,6.1,14.6c3.4,3.2,7.3,4.8,11.7,4.8
					c5.2,0,9.7-2.1,13.1-6.4c3.1-3.7,4.6-8.1,4.6-13c0-5.9-2.1-10.9-6.1-14.7c-3.4-3.1-7.3-4.7-11.6-4.7
					C612.8,382.1,608.4,384.2,604.9,388.4z M617.9,420.1c-5,0-9.3-2.1-12.7-6.2l0,0c-2.8-3.5-4.2-7.6-4.2-12.3c0-5.7,2-10.4,6-14.1
					c3.2-2.9,6.9-4.4,10.9-4.4c5.2,0,9.4,2.1,12.7,6.3c2.7,3.5,4.1,7.6,4.1,12.2c0,5.7-2,10.4-6,14.1
					C625.7,418.6,622,420.1,617.9,420.1z M605.9,413.4c3.2,4,7.3,6,12.1,6c3.9,0,7.4-1.4,10.4-4.2c3.8-3.5,5.7-8.1,5.7-13.6
					c0-4.4-1.3-8.3-4-11.7c-3.2-4-7.2-6-12.1-6c-3.8,0-7.3,1.4-10.4,4.2c-3.8,3.5-5.7,8.1-5.7,13.6C601.8,406,603.2,410,605.9,413.4
					z"/>
			</g>
			<g>
				<path class="st0" d="M653,381.8h1.8l0.2,0.5l15,36.1l14.8-36.1l0.2-0.5h1.8l-0.5,1.2l-15.6,37.9l-0.2,0.5h-1.2l-0.2-0.5
					l-15.7-37.9L653,381.8z"/>
				<path class="st0" d="M670.8,421.7h-1.7l-0.2-0.8l-16.5-39.6h2.7l0.2,0.8l14.6,35.2l14.5-35.3l0.2-0.7h2.7l-0.7,1.7L671,421
					L670.8,421.7z M669.6,421h0.6l0.1-0.2l15.9-38.6h-1l-0.1,0.2l-15.2,37l-15.4-37.2h-1l0.3,0.6L669.6,421z"/>
			</g>
			<g>
				<path class="st0" d="M737.6,413.3c-3.9,5.3-9.2,8-15.8,8c-4.5,0-8.5-1.6-11.9-4.8c-4.2-4-6.3-9-6.3-15c0-5.1,1.6-9.5,4.7-13.3
					c3.6-4.3,8-6.5,13.4-6.5c4.5,0,8.4,1.6,11.9,4.8c4.2,4,6.3,9,6.3,15v0.8h-0.8h-33.8c0.2,4.2,1.5,7.9,4,11
					c3.3,4.2,7.5,6.3,12.5,6.3c5.9,0,10.8-2.4,14.5-7.3L737.6,413.3z M738.3,400.7c0-4.2-1.3-7.9-4-11.3c-3.4-4-7.5-6-12.4-6
					c-3.8,0-7.2,1.3-10.2,3.9c-4,3.4-6,7.9-6.3,13.4H738.3z"/>
				<path class="st0" d="M721.8,421.7c-4.6,0-8.7-1.6-12.1-4.9c-4.2-4-6.4-9.2-6.4-15.3c0-5.2,1.6-9.7,4.8-13.5
					c3.6-4.4,8.2-6.6,13.7-6.6c4.5,0,8.6,1.6,12.1,4.9c4.2,4,6.4,9.2,6.4,15.3v1.2h-34.6c0.3,3.9,1.6,7.4,3.9,10.4
					c3.2,4.1,7.3,6.1,12.2,6.1c5.8,0,10.6-2.4,14.2-7.2l0.2-0.3l1.9,1.4l-0.2,0.3C734,419,728.5,421.7,721.8,421.7z M721.8,382.1
					c-5.2,0-9.7,2.1-13.1,6.4c-3.1,3.7-4.6,8-4.6,13c0,5.9,2.1,10.9,6.1,14.7c3.3,3.1,7.2,4.7,11.6,4.7c6.4,0,11.5-2.5,15.3-7.5
					l-0.7-0.5c-3.8,4.8-8.7,7.2-14.6,7.2c-5.2,0-9.5-2.2-12.8-6.4c-2.5-3.2-3.8-7-4-11.3l0-0.4h34.6v-0.5c0-5.9-2.1-10.9-6.1-14.7
					C730,383.7,726.1,382.1,721.8,382.1z M738.7,401.1h-33.7l0-0.4c0.2-5.6,2.4-10.2,6.4-13.7c3.1-2.6,6.6-4,10.5-4
					c5,0,9.3,2.1,12.7,6.2c2.7,3.4,4.1,7.3,4.1,11.5V401.1z M705.7,400.4h32.2c-0.1-3.9-1.4-7.5-4-10.7c-3.3-3.9-7.3-5.9-12.2-5.9
					c-3.7,0-7,1.3-10,3.8C708.1,390.8,706,395.1,705.7,400.4z"/>
			</g>
			<g>
				<path class="st0" d="M756.8,374.3v-1.6h0.8h0.1h0.8v1.6h-0.8h-0.1H756.8z M756.8,381.8h1.6v0.8v37.9v0.8h-1.6v-0.8v-37.9V381.8z
					"/>
				<path class="st0" d="M758.9,421.7h-2.4v-40.3h2.4V421.7z M757.2,421h0.9v-38.8h-0.9V421z M759,374.6h-2.5v-2.4h2.5V374.6z
					 M757.2,373.9h1V373h-1V373.9z"/>
			</g>
			<g>
				<path class="st0" d="M803,392c0-1.7-0.7-3.3-2.1-4.8c-2.4-2.5-5.8-3.8-10.1-3.8c-2.6,0-5,0.6-7.2,1.6c-3.4,1.7-5,4-5,6.9
					c0.1,1.4,0.7,2.6,1.9,3.8c1.6,1.4,5.3,3,11,4.9c3.1,1,5.4,1.8,6.8,2.4c5.2,2.2,7.7,4.9,7.7,8.1c0,2-0.9,3.9-2.6,5.7
					c-3,3-7.2,4.5-12.8,4.5c-3.7,0-7-0.8-9.9-2.4c-3.6-2-5.4-4.6-5.4-7.8h1.6c0.1,1.7,0.8,3.3,2.3,4.8c2.7,2.5,6.5,3.8,11.4,3.8
					c3.1,0,5.9-0.6,8.3-1.8c3.6-1.7,5.4-4,5.4-6.8c-0.1-1.4-0.7-2.6-2-3.8c-1.5-1.4-5.2-3-10.9-4.8c-3.2-1-5.5-1.9-6.9-2.5
					c-5.2-2.1-7.7-4.8-7.7-8.1c0-2,0.8-4,2.4-5.8c2.7-3,6.6-4.5,11.5-4.5c3.2,0,6.2,0.8,8.7,2.3c3.4,2,5.1,4.7,5.1,7.9H803z"/>
				<path class="st0" d="M790.8,421.7c-3.8,0-7.2-0.8-10.1-2.4c-3.7-2.1-5.6-4.8-5.6-8.2v-0.4h2.4l0,0.4c0,1.6,0.8,3.1,2.2,4.5
					c2.7,2.4,6.4,3.7,11.1,3.7c3,0,5.8-0.6,8.2-1.8c3.4-1.6,5.1-3.8,5.1-6.4c0-1.2-0.7-2.4-1.9-3.5c-1.5-1.3-5.1-2.9-10.7-4.7
					c-3.2-1.1-5.5-1.9-7-2.5c-5.3-2.2-8-5-8-8.4c0-2.1,0.8-4.1,2.5-6c2.8-3,6.8-4.6,11.7-4.6c3.3,0,6.3,0.8,8.9,2.4
					c3.5,2.1,5.3,4.9,5.3,8.2v0.4h-2.4V392c0-1.6-0.7-3.1-2-4.5c-2.3-2.4-5.6-3.7-9.8-3.7c-2.5,0-4.9,0.5-7,1.6
					c-3.2,1.6-4.8,3.8-4.8,6.6c0.1,1.3,0.6,2.4,1.8,3.5c1.5,1.3,5.2,2.9,10.9,4.8c3.1,1,5.4,1.8,6.9,2.4c5.3,2.3,8,5.1,8,8.4
					c0,2.1-0.9,4.1-2.7,5.9C800.8,420.1,796.4,421.7,790.8,421.7z M775.9,411.5c0.1,2.9,1.9,5.3,5.2,7.1c2.8,1.6,6,2.3,9.7,2.3
					c5.4,0,9.6-1.5,12.5-4.4c1.6-1.7,2.4-3.5,2.4-5.4c0-3-2.5-5.6-7.5-7.7c-1.4-0.5-3.7-1.3-6.8-2.4c-5.9-1.9-9.5-3.5-11.2-4.9
					c-1.3-1.2-2-2.6-2-4.1c0-3.1,1.8-5.5,5.2-7.3c2.2-1.1,4.7-1.7,7.3-1.7c4.4,0,7.8,1.3,10.3,3.9c1.4,1.4,2.1,3,2.2,4.7h0.9
					c-0.1-2.9-1.8-5.3-4.9-7.2c-2.5-1.5-5.4-2.3-8.5-2.3c-4.8,0-8.5,1.5-11.2,4.3c-1.5,1.7-2.3,3.6-2.3,5.5c0,3.1,2.5,5.7,7.5,7.7
					c1.4,0.6,3.7,1.4,6.9,2.5c5.8,1.8,9.4,3.4,11,4.9c1.3,1.2,2,2.6,2.1,4.1c0,3-1.9,5.3-5.6,7.1c-2.5,1.2-5.4,1.8-8.5,1.8
					c-4.9,0-8.8-1.3-11.6-3.9c-1.5-1.5-2.3-3-2.4-4.7H775.9z"/>
			</g>
		</g>
		<g>
			<polygon class="st0" points="734.9,363.2 736.1,364.4 735.5,365 723.6,376.9 723,377.5 721.8,376.4 722.4,375.8 734.3,363.8 			
				"/>
			<path class="st0" d="M723,378.1l-1.7-1.7l13.6-13.6l1.7,1.7L723,378.1z M722.3,376.4l0.6,0.6l12.6-12.6l-0.6-0.6L722.3,376.4z"/>
		</g>
	</g>
</g>
</svg>
